<?xml version="1.0" encoding="UTF-8"?>
<!DOCTYPE svg PUBLIC "-//W3C//DTD SVG 1.1//EN" "http://www.w3.org/Graphics/SVG/1.1/DTD/svg11.dtd">
<svg xmlns="http://www.w3.org/2000/svg" version="1.1" width="256px" height="256px" style="shape-rendering:geometricPrecision; text-rendering:geometricPrecision; image-rendering:optimizeQuality; fill-rule:evenodd; clip-rule:evenodd" xmlns:xlink="http://www.w3.org/1999/xlink">
<g><path style="opacity:0.873" fill="#3eafff" d="M 47.5,-0.5 C 49.5,-0.5 51.5,-0.5 53.5,-0.5C 77.4996,21.2668 101.666,42.9335 126,64.5C 126.667,93.1667 126.667,121.833 126,150.5C 120.964,153.848 115.464,155.348 109.5,155C 88.3048,134.138 67.4714,112.972 47,91.5C 46.1751,60.7616 46.3418,30.0949 47.5,-0.5 Z M 55.5,14.5 C 76.4249,31.9191 96.9249,49.9191 117,68.5C 117.167,81.1667 117.333,93.8333 117.5,106.5C 117.49,119.557 116.824,132.39 115.5,145C 114.5,145.667 113.5,145.667 112.5,145C 93.6667,126.167 74.8333,107.333 56,88.5C 55.5,63.8356 55.3334,39.1689 55.5,14.5 Z"/></g>
<g><path style="opacity:0.88" fill="#3eafff" d="M 131.5,93.5 C 148.866,94.8531 164.533,100.686 178.5,111C 180.448,112.439 181.781,114.272 182.5,116.5C 171.447,130.059 159.447,142.892 146.5,155C 141.298,155.273 136.298,154.273 131.5,152C 130.299,151.097 129.465,149.931 129,148.5C 128.333,130.833 128.333,113.167 129,95.5C 129.995,94.9341 130.828,94.2674 131.5,93.5 Z M 137.5,103.5 C 149.84,105.174 160.84,109.841 170.5,117.5C 161.439,127.563 151.773,136.896 141.5,145.5C 140.446,145.32 139.446,144.987 138.5,144.5C 137.501,130.85 137.167,117.183 137.5,103.5 Z"/></g>
<g><path style="opacity:0.876" fill="#3eafff" d="M 48.5,101.5 C 50.6547,101.372 52.6547,101.872 54.5,103C 71.9712,121.472 89.8045,139.638 108,157.5C 107.972,163.248 106.139,168.414 102.5,173C 93.4295,174.141 84.2629,174.641 75,174.5C 66.5,174.333 58,174.167 49.5,174C 48.5838,173.626 47.7504,173.126 47,172.5C 46.3333,149.5 46.3333,126.5 47,103.5C 47.7172,102.956 48.2172,102.289 48.5,101.5 Z M 55.5,118.5 C 69.9652,132.465 84.2985,146.631 98.5,161C 97.8333,162.333 97.1667,163.667 96.5,165C 82.8374,165.5 69.1707,165.667 55.5,165.5C 55.5,149.833 55.5,134.167 55.5,118.5 Z"/></g>
<g><path style="opacity:0.899" fill="#3eafff" d="M 182.5,120.5 C 185.365,120.055 187.865,120.722 190,122.5C 201.945,136.999 207.945,153.666 208,172.5C 189.574,173.659 171.074,173.825 152.5,173C 149.261,168.279 147.427,163.113 147,157.5C 158.673,144.994 170.506,132.661 182.5,120.5 Z M 184.5,131.5 C 192.592,141.191 197.592,152.357 199.5,165C 185.821,165.833 172.154,165.666 158.5,164.5C 157.96,163.252 157.293,162.085 156.5,161C 165.672,150.995 175.006,141.162 184.5,131.5 Z"/></g>
<g><path style="opacity:0.862" fill="#3eafff" d="M 49.5,175.5 C 66.5033,175.333 83.5033,175.5 100.5,176C 102.667,176.833 104.167,178.333 105,180.5C 106.655,184.432 107.655,188.432 108,192.5C 96.5297,204.971 84.6964,217.138 72.5,229C 70.5,229.667 68.5,229.667 66.5,229C 53.4892,214.301 46.9892,197.135 47,177.5C 47.9947,176.934 48.828,176.267 49.5,175.5 Z M 55.5,185.5 C 68.9938,184.339 82.6604,184.173 96.5,185C 97.1667,186.333 97.8333,187.667 98.5,189C 88.9859,198.681 79.3192,208.181 69.5,217.5C 62.2965,207.871 57.6299,197.205 55.5,185.5 Z"/></g>
<g><path style="opacity:0.874" fill="#3eafff" d="M 154.5,175.5 C 171.837,175.333 189.17,175.5 206.5,176C 207,176.5 207.5,177 208,177.5C 207.964,196.611 201.797,213.444 189.5,228C 187.5,228.667 185.5,228.667 183.5,228C 171.667,216.167 159.833,204.333 148,192.5C 147.174,187.471 148.174,182.805 151,178.5C 152.145,177.364 153.312,176.364 154.5,175.5 Z M 158.5,184.5 C 172.183,184.167 185.85,184.501 199.5,185.5C 197.467,197.23 192.967,207.897 186,217.5C 176.667,208.167 167.333,198.833 158,189.5C 157.616,187.803 157.782,186.137 158.5,184.5 Z"/></g>
<g><path style="opacity:0.878" fill="#3eafff" d="M 125.5,255.5 C 121.833,255.5 118.167,255.5 114.5,255.5C 99.7488,252.522 86.4154,246.355 74.5,237C 72.6041,235.192 72.1041,233.025 73,230.5C 85.3782,217.62 98.2115,205.287 111.5,193.5C 116.688,195.17 121.521,197.503 126,200.5C 126.807,218.877 126.64,237.21 125.5,255.5 Z M 112.5,203.5 C 113.807,204.153 115.14,204.82 116.5,205.5C 117.499,219.15 117.833,232.817 117.5,246.5C 105.16,244.826 94.1603,240.159 84.5,232.5C 93.8547,222.813 103.188,213.146 112.5,203.5 Z"/></g>
<g><path style="opacity:0.885" fill="#3eafff" d="M 140.5,255.5 C 136.833,255.5 133.167,255.5 129.5,255.5C 128.348,237.24 128.181,218.907 129,200.5C 133.977,195.928 139.81,194.094 146.5,195C 158,206.5 169.5,218 181,229.5C 181.638,230.609 182.138,231.775 182.5,233C 175.998,240.601 167.998,246.268 158.5,250C 152.469,252.168 146.469,254.001 140.5,255.5 Z M 139.5,204.5 C 140.873,204.343 142.207,204.51 143.5,205C 152.681,214.014 161.681,223.181 170.5,232.5C 160.875,240.139 149.875,244.805 137.5,246.5C 136.878,232.255 137.545,218.255 139.5,204.5 Z"/></g>
</svg>
